<svg width="40" height="40" viewBox="0 0 40 40" fill="none" xmlns="http://www.w3.org/2000/svg">
<rect width="40" height="40" rx="8" fill="#2B3143"/>
<path fill-rule="evenodd" clip-rule="evenodd" d="M13.082 13.41C13 13.57 13 13.78 13 14.2V18.028C13 18.448 13 18.658 13.082 18.818C13.1539 18.9592 13.2688 19.0741 13.41 19.146C13.57 19.228 13.78 19.228 14.2 19.228H18.028C18.448 19.228 18.658 19.228 18.818 19.146C18.9592 19.0741 19.0741 18.9592 19.146 18.818C19.228 18.658 19.228 18.448 19.228 18.028V14.2C19.228 13.78 19.228 13.57 19.146 13.41C19.0741 13.2688 18.9592 13.1539 18.818 13.082C18.658 13 18.448 13 18.028 13H14.2C13.78 13 13.57 13 13.41 13.082C13.2688 13.1539 13.1539 13.2688 13.082 13.41ZM14.5 14.5H17.728V17.728H14.5V14.5Z" fill="white"/>
<path fill-rule="evenodd" clip-rule="evenodd" d="M13.082 21.182C13 21.342 13 21.552 13 21.972V25.8C13 26.22 13 26.43 13.082 26.59C13.1539 26.7312 13.2688 26.846 13.41 26.918C13.57 27 13.78 27 14.2 27H18.028C18.448 27 18.658 27 18.818 26.918C18.9592 26.846 19.0741 26.7312 19.146 26.59C19.228 26.43 19.228 26.22 19.228 25.8V21.972C19.228 21.552 19.228 21.342 19.146 21.182C19.0741 21.0407 18.9592 20.9259 18.818 20.854C18.658 20.772 18.448 20.772 18.028 20.772H14.2C13.78 20.772 13.57 20.772 13.41 20.854C13.2688 20.9259 13.1539 21.0407 13.082 21.182ZM14.5 22.272H17.728V25.5H14.5V22.272Z" fill="white"/>
<path fill-rule="evenodd" clip-rule="evenodd" d="M20.772 14.2C20.772 13.78 20.772 13.57 20.854 13.41C20.9259 13.2688 21.0407 13.1539 21.182 13.082C21.342 13 21.552 13 21.972 13H25.8C26.22 13 26.43 13 26.59 13.082C26.7312 13.1539 26.846 13.2688 26.918 13.41C27 13.57 27 13.78 27 14.2V18.028C27 18.448 27 18.658 26.918 18.818C26.846 18.9592 26.7312 19.0741 26.59 19.146C26.43 19.228 26.22 19.228 25.8 19.228H21.972C21.552 19.228 21.342 19.228 21.182 19.146C21.0407 19.0741 20.9259 18.9592 20.854 18.818C20.772 18.658 20.772 18.448 20.772 18.028V14.2ZM22.272 17.728V14.5H25.5V17.728H22.272Z" fill="white"/>
<path d="M20.77 20.77H22.847V22.847H20.77V20.77Z" fill="white"/>
<path d="M24.923 22.847H22.847V24.923H20.77V27H22.847V24.923H24.923V27H27V24.923H24.923V22.847Z" fill="white"/>
<path d="M24.923 22.847V20.77H27V22.847H24.923Z" fill="white"/>
</svg>
